<svg xmlns="http://www.w3.org/2000/svg" id="Camada_2" viewBox="0 0 59.93 66.68"><defs><style>.cls-1{fill:#4b697b;}.cls-2{fill:#034051;}</style></defs><g id="Camada_1-2"><polygon class="cls-2" points="30.06 66.68 37.96 61.94 8.54 45.33 .42 49.6 30.06 66.68"></polygon><polygon class="cls-1" points="8.26 10.6 0 14.85 0 48.69 8.17 44.4 8.26 10.6"></polygon><polygon class="cls-1" points="8.26 10.46 0 14.72 0 14.85 8.26 10.6 8.26 10.46"></polygon><polygon class="cls-1" points="17.2 38.93 25.32 34.33 25.32 0 17.2 4.62 17.2 38.93"></polygon><polygon class="cls-1" points="59.78 15.14 51.9 10.41 51.64 44.19 59.93 48.54 59.78 15.14"></polygon><polygon class="cls-2" points="47.46 47.46 25.82 35.2 17.7 39.82 46.88 56.81 59.41 49.4 51.16 45.07 47.46 47.46"></polygon><polygon class="cls-2" points="59.41 49.4 59.41 49.4 46.88 56.81 59.41 49.4"></polygon></g></svg>